<svg xmlns="http://www.w3.org/2000/svg" width="834" height="834" viewBox="0 0 834 834">
<g>
<path d="M 261.45 730.47 C254.19,732.36 242.26,732.34 235.12,730.42 C207.95,723.11 189.92,696.36 193.89,669.25 C199.24,632.81 239.19,611.59 271.96,627.77 C280.35,631.92 292.58,643.10 294.91,648.75 L 296.24 652.00 L 527.76 652.00 L 529.09 648.78 C531.13,643.86 542.71,632.80 550.00,628.81 C553.58,626.86 558.97,624.67 562.00,623.96 C567.67,622.61 579.96,622.12 585.85,623.00 L 589.19 623.50 L 596.67 610.00 C600.79,602.57 607.87,589.75 612.42,581.50 C616.97,573.25 630.50,548.72 642.48,527.00 C654.47,505.27 666.62,483.23 669.49,478.00 C672.36,472.77 677.93,462.69 681.86,455.60 C685.79,448.50 689.00,442.54 689.00,442.35 C689.00,442.16 638.87,442.00 577.60,442.00 L 466.19 442.00 L 463.56 446.49 C458.05,455.89 445.71,465.67 434.50,469.50 C427.77,471.81 413.67,472.59 406.88,471.02 C378.92,464.59 359.41,436.56 363.87,409.25 C364.56,404.99 365.20,400.80 365.28,399.95 C365.41,398.60 349.04,368.60 277.71,239.50 L 262.24 211.50 L 252.32 211.86 C235.03,212.48 221.69,207.48 209.84,195.93 C187.97,174.61 187.81,139.91 209.48,118.56 C229.40,98.93 260.01,96.77 281.53,113.48 C287.11,117.81 293.58,124.99 295.29,128.75 L 296.32 131.00 L 527.93 131.00 L 529.10 128.75 C531.71,123.74 539.45,115.85 546.11,111.43 C567.67,97.09 595.43,99.81 613.82,118.05 C630.87,134.97 634.91,161.09 623.76,182.42 C617.12,195.12 600.42,208.12 587.20,210.89 C579.73,212.46 569.83,212.27 562.64,210.43 C550.13,207.22 536.79,197.49 530.00,186.63 L 526.50 181.03 L 414.72 181.01 L 302.95 181.00 L 304.62 184.25 C305.53,186.04 318.08,208.88 332.49,235.00 C346.91,261.12 367.62,298.70 378.53,318.50 C401.40,360.04 403.15,363.29 404.98,363.34 C405.14,363.34 405.29,363.32 405.46,363.30 C405.51,363.30 405.55,363.29 405.60,363.29 C417.31,361.96 420.57,361.91 426.81,362.97 C441.35,365.42 456.60,375.64 463.65,387.66 L 466.19 392.00 L 696.76 392.00 L 697.99 389.02 C699.70,384.89 710.71,373.84 716.48,370.46 C744.90,353.80 779.22,363.44 794.06,392.24 C807.98,419.25 796.91,452.53 769.43,466.31 C760.37,470.85 752.71,472.30 741.00,471.67 L 730.50 471.12 L 716.34 496.81 C708.55,510.94 694.10,537.12 684.23,555.00 C674.36,572.88 657.48,603.47 646.72,623.00 L 627.15 658.50 L 628.57 663.97 C630.42,671.05 630.39,683.07 628.51,690.29 C624.49,705.74 613.59,719.39 599.86,726.17 C578.18,736.89 555.09,732.91 537.50,715.43 C533.59,711.54 529.80,706.93 529.07,705.18 L 527.76 702.00 L 297.34 702.00 L 293.94 707.24 C286.83,718.21 274.41,727.10 261.45,730.47 ZM 237.50 180.19 C242.54,182.64 244.46,183.05 249.50,182.75 C259.71,182.14 267.21,176.97 271.64,167.50 C277.39,155.20 272.04,140.31 259.50,133.72 C251.19,129.36 237.71,131.49 230.15,138.36 C222.80,145.05 220.30,159.16 224.89,168.05 C228.19,174.45 230.72,176.88 237.50,180.19 ZM 237.50 700.19 C242.54,702.64 244.46,703.05 249.50,702.75 C259.71,702.14 267.21,696.97 271.64,687.50 C277.40,675.20 272.01,660.23 259.50,653.75 C251.18,649.45 237.61,651.58 230.15,658.36 C222.80,665.05 220.30,679.16 224.89,688.05 C228.19,694.45 230.72,696.88 237.50,700.19 ZM 734.31 440.07 C741.81,443.62 748.44,443.89 755.00,440.92 C771.87,433.30 776.24,412.28 763.69,399.16 C755.16,390.25 742.81,388.78 731.78,395.37 C714.27,405.83 715.71,431.27 734.31,440.07 ZM 567.75 701.57 C569.81,702.31 573.75,702.92 576.50,702.93 C593.84,703.01 606.20,682.67 598.64,666.50 C594.00,656.58 586.47,651.64 575.95,651.61 C562.89,651.57 552.77,660.31 550.57,673.54 C548.68,684.88 556.43,697.53 567.75,701.57 ZM 567.75 181.63 C572.36,183.36 582.44,182.87 586.55,180.72 C598.74,174.34 604.31,158.61 598.64,146.50 C594.00,136.58 586.47,131.64 575.95,131.61 C562.89,131.57 552.77,140.31 550.57,153.54 C548.68,164.87 556.33,177.37 567.75,181.63 ZM 409.63 441.53 C418.86,444.82 428.72,442.34 435.84,434.93 C447.90,422.38 443.91,400.94 428.11,393.36 C422.48,390.67 412.62,390.96 406.65,393.99 C393.71,400.57 388.70,416.34 395.55,428.92 C398.86,435.00 403.85,439.47 409.63,441.53 Z" fill="rgb(1,51,151)"/>
<path d="M 100.20 470.88 C82.45,474.63 64.29,468.97 50.59,455.40 C23.93,429.01 31.20,385.00 65.01,368.00 C100.87,349.97 143.89,376.50 143.99,416.70 C144.05,442.59 125.51,465.52 100.20,470.88 ZM 603.12 598.35 C600.71,602.70 598.42,606.84 596.67,610.00 L 589.19 623.50 L 585.85 623.00 C579.96,622.12 567.67,622.61 562.00,623.96 C558.97,624.67 553.58,626.86 550.00,628.81 C542.71,632.80 531.13,643.86 529.09,648.78 L 527.76 652.00 L 296.24 652.00 L 294.91 648.75 C292.58,643.10 280.35,631.92 271.96,627.77 C266.41,625.03 260.66,623.37 254.90,622.66 C255.36,622.71 255.80,622.77 256.22,622.83 C260.32,623.44 264.37,624.20 265.21,624.53 C266.27,624.93 267.17,624.10 268.13,621.81 C270.69,615.73 277.49,604.03 278.47,604.02 C279.42,604.00 309.36,620.39 311.64,622.18 C312.45,622.81 310.63,626.97 305.39,636.46 C301.33,643.83 298.00,650.34 298.00,650.93 C298.00,651.68 331.67,652.00 412.00,652.00 C474.70,652.00 526.00,651.76 526.00,651.48 C526.00,651.19 522.85,644.64 519.00,636.93 C515.15,629.22 512.00,622.48 512.00,621.96 C512.00,621.07 545.05,604.00 546.76,604.00 C547.19,604.00 549.91,608.77 552.81,614.59 C556.83,622.67 558.45,625.04 559.64,624.59 C563.66,623.04 575.93,621.87 581.64,622.48 C585.13,622.85 588.32,623.11 588.74,623.05 C589.33,622.97 591.74,618.91 603.12,598.35 ZM 80.74 441.57 C90.16,444.93 101.21,441.96 108.23,434.18 C115.91,425.66 117.20,415.72 111.98,405.29 C102.71,386.72 76.99,386.43 66.42,404.78 C62.82,411.02 62.48,421.19 65.64,428.07 C68.00,433.24 75.05,439.54 80.74,441.57 ZM 217.00 397.00 L 217.00 437.00 L 177.00 437.00 L 177.00 397.00 ZM 297.00 397.00 L 297.00 437.00 L 257.00 437.00 L 257.00 397.00 ZM 184.01 576.49 C174.67,581.17 166.59,585.00 166.07,585.00 C165.01,585.00 147.30,550.33 148.03,549.70 C149.66,548.30 181.17,533.00 182.43,533.00 C183.45,533.00 186.96,538.93 192.49,549.99 C197.17,559.33 201.00,567.21 201.00,567.48 C201.00,567.76 193.35,571.82 184.01,576.49 ZM 476.57 504.48 C467.03,509.17 459.01,513.00 458.74,513.00 C457.74,513.00 456.15,510.16 448.19,494.19 L 440.07 477.88 L 457.23 469.44 C466.68,464.80 474.87,461.00 475.45,461.00 C476.03,461.01 480.42,468.87 485.20,478.48 L 493.91 495.96 ZM 147.26 505.39 C137.78,510.12 129.90,514.00 129.75,514.00 C129.42,514.00 112.00,479.18 112.00,478.52 C112.00,478.09 146.46,461.00 147.33,461.00 C147.93,461.00 165.29,496.05 164.87,496.43 C164.67,496.62 156.74,500.65 147.26,505.39 ZM 200.95 265.80 C200.92,266.18 196.96,274.30 192.15,283.83 L 183.41 301.15 L 165.96 292.45 C156.36,287.66 148.36,283.62 148.19,283.48 C147.90,283.23 164.76,249.00 165.64,248.06 C166.21,247.45 201.01,264.93 200.95,265.80 ZM 339.75 574.25 C333.06,586.42 331.60,588.10 329.45,586.13 C328.93,585.65 325.12,583.46 321.00,581.27 C305.49,573.05 298.00,568.58 298.00,567.56 C298.00,566.97 299.48,564.03 301.29,561.00 C303.09,557.97 307.24,550.66 310.51,544.75 C313.78,538.84 316.79,534.00 317.19,534.00 C318.05,534.00 349.09,550.86 350.33,552.00 C351.27,552.86 349.70,556.17 339.75,574.25 ZM 484.49 356.01 C479.82,365.36 475.88,372.97 475.74,372.94 C473.33,372.38 441.00,355.23 440.99,354.51 C440.97,352.82 457.35,320.00 458.22,320.00 C460.02,320.00 493.00,337.09 493.00,338.02 C493.00,338.57 489.17,346.67 484.49,356.01 ZM 377.68 505.75 C374.33,511.94 371.11,516.98 370.54,516.96 C369.69,516.93 341.37,501.40 337.33,498.75 C336.09,497.94 353.53,465.12 355.63,464.31 C356.46,463.99 386.98,480.30 389.86,482.60 C390.05,482.75 388.77,485.50 387.00,488.69 C385.23,491.89 381.03,499.56 377.68,505.75 ZM 511.59 576.36 C502.01,581.11 494.01,585.00 493.82,585.00 C493.31,585.00 475.84,549.82 476.20,549.50 C477.10,548.68 511.26,531.93 511.49,532.19 C511.95,532.69 529.00,566.94 529.00,567.35 C529.00,567.55 521.16,571.61 511.59,576.36 ZM 520.38 283.38 C515.59,293.07 511.41,300.98 511.09,300.95 C510.50,300.89 476.78,284.03 476.19,283.49 C475.93,283.26 492.68,249.10 493.51,248.19 C493.74,247.93 527.89,264.67 528.79,265.49 C528.95,265.63 525.17,273.68 520.38,283.38 ZM 701.02 360.08 C692.14,364.99 684.49,369.00 684.02,369.00 C682.94,369.00 681.02,365.84 671.71,348.76 L 664.22 335.03 L 667.36 333.14 C678.87,326.24 699.42,315.75 699.71,316.63 C699.90,317.21 704.13,324.99 709.11,333.93 C714.09,342.86 717.94,350.39 717.67,350.66 C717.40,350.93 709.91,355.17 701.02,360.08 ZM 156.50 354.32 C151.55,364.03 147.05,371.94 146.50,371.91 C145.36,371.84 113.46,355.84 112.51,354.86 C111.42,353.74 128.87,320.00 130.54,320.00 C131.38,320.00 139.01,323.56 147.50,327.91 C156.00,332.26 163.52,336.01 164.22,336.24 C165.09,336.53 162.64,342.28 156.50,354.32 ZM 662.06 290.25 C653.17,295.06 645.55,299.00 645.13,299.00 C644.35,299.00 625.99,266.62 626.01,265.26 C626.01,264.57 655.38,247.92 659.07,246.52 C660.26,246.07 661.95,248.32 666.00,255.71 C668.94,261.10 673.11,268.57 675.26,272.31 C677.41,276.06 678.95,279.66 678.70,280.31 C678.44,280.97 670.95,285.44 662.06,290.25 ZM 303.20 181.50 L 302.95 181.00 L 414.72 181.01 L 526.50 181.03 L 530.00 186.63 C536.54,197.10 549.18,206.52 561.29,210.05 C560.03,209.74 558.75,209.40 557.46,209.01 C557.44,209.01 555.21,213.50 552.50,219.00 C549.79,224.50 547.26,229.00 546.87,229.00 C545.66,229.00 513.01,212.82 512.47,211.95 C512.19,211.50 515.15,204.53 519.05,196.47 C522.95,188.40 525.95,181.62 525.73,181.40 C525.51,181.17 475.30,181.11 414.16,181.25 ZM 363.77 396.51 C364.86,398.69 365.30,399.72 365.28,399.95 C365.20,400.80 364.56,404.99 363.87,409.25 C361.15,425.90 367.34,442.82 378.93,454.95 C375.21,451.25 372.13,447.22 370.06,443.12 L 366.97 437.00 L 337.00 437.00 L 337.00 397.00 L 350.50 397.00 C357.07,397.00 362.58,396.79 363.77,396.51 ZM 241.98 622.67 C218.53,625.52 197.65,643.62 193.89,669.25 C193.11,674.62 193.18,679.98 194.02,685.17 C192.42,675.59 193.34,665.73 197.07,657.05 L 199.14 652.25 L 191.57 637.14 C187.41,628.83 184.00,621.81 184.00,621.54 C184.00,620.97 217.64,604.00 218.77,604.00 C219.20,604.00 221.91,608.77 224.81,614.59 C229.05,623.12 230.41,625.06 231.77,624.53 C234.03,623.67 237.83,623.02 241.98,622.67 ZM 573.37 211.89 C578.14,212.09 583.04,211.76 587.20,210.89 C600.42,208.12 617.12,195.12 623.76,182.42 C626.36,177.45 628.13,172.21 629.11,166.90 C628.63,170.04 627.94,172.94 627.04,175.28 L 624.83 181.06 L 632.10 194.19 C636.10,201.41 639.40,208.18 639.44,209.24 C639.49,210.72 635.74,213.26 623.50,220.08 C614.70,224.98 607.05,228.98 606.50,228.97 C605.95,228.95 603.03,224.46 600.00,218.99 C596.16,212.04 594.05,209.18 593.00,209.49 C586.36,211.43 579.96,212.24 573.37,211.89 ZM 193.68 150.93 C191.86,166.97 197.26,183.67 209.84,195.93 C221.69,207.48 235.03,212.48 252.32,211.86 C245.39,212.11 240.48,211.73 236.05,210.59 C232.56,209.70 229.59,209.09 229.46,209.23 C229.32,209.38 227.08,213.89 224.48,219.25 C221.88,224.61 219.36,229.00 218.88,229.00 C217.68,229.00 184.00,212.06 184.00,211.46 C184.00,211.19 187.36,204.26 191.47,196.05 L 198.95 181.13 L 197.02 176.77 C193.53,168.90 192.51,159.87 193.68,150.93 ZM 197.31 696.90 C199.85,703.18 203.54,708.99 208.16,714.02 C203.47,709.04 199.82,703.18 197.31,696.90 ZM 403.77 362.69 C402.19,361.11 399.11,355.80 389.75,338.86 C399.09,355.72 402.23,361.07 403.77,362.69 ZM 629.54 149.78 C629.12,146.60 628.42,143.45 627.44,140.37 C627.84,141.59 628.21,142.83 628.54,144.09 C628.98,145.79 629.31,147.72 629.54,149.78 ZM 344.82 257.35 C340.47,249.46 336.27,241.84 332.49,235.00 C327.81,226.51 323.32,218.36 319.36,211.17 L 322.58 217.00 C328.00,226.83 336.12,241.57 344.82,257.35 ZM 277.43 239.00 L 262.24 211.50 L 277.71 239.50 C284.09,251.05 290.03,261.80 295.56,271.81 C289.93,261.62 283.90,250.70 277.43,239.00 Z" fill="rgb(163,164,166)"/>
<path d="M 0.00 417.00 L 0.00 0.00 L 417.00 0.00 L 834.00 0.00 L 834.00 417.00 L 834.00 834.00 L 417.00 834.00 L 0.00 834.00 L 0.00 417.00 ZM 261.45 730.47 C274.41,727.10 286.83,718.21 293.94,707.24 L 297.34 702.00 L 412.55 702.00 L 527.76 702.00 L 529.07 705.18 C529.80,706.93 533.59,711.54 537.50,715.43 C555.09,732.91 578.18,736.89 599.86,726.17 C613.59,719.39 624.49,705.74 628.51,690.29 C630.39,683.07 630.42,671.05 628.57,663.97 L 627.15 658.50 L 646.72 623.00 C657.48,603.47 674.36,572.88 684.23,555.00 C694.10,537.12 708.55,510.94 716.34,496.81 L 730.50 471.12 L 741.00 471.67 C752.71,472.30 760.37,470.85 769.43,466.31 C796.91,452.53 807.98,419.25 794.06,392.24 C779.22,363.44 744.90,353.80 716.48,370.46 C710.71,373.84 699.70,384.89 697.99,389.02 L 696.76 392.00 L 581.47 392.00 L 466.19 392.00 L 463.65 387.66 C456.60,375.64 441.35,365.42 426.81,362.97 C420.57,361.91 417.31,361.96 405.60,363.29 C403.23,363.55 404.65,365.96 370.16,303.34 C354.76,275.38 333.35,236.52 322.58,217.00 L 302.99 181.50 L 414.16 181.25 C475.30,181.11 525.51,181.17 525.73,181.40 C525.95,181.62 522.95,188.40 519.05,196.47 C515.15,204.53 512.19,211.50 512.47,211.95 C513.01,212.82 545.66,229.00 546.87,229.00 C547.26,229.00 549.79,224.50 552.50,219.00 C555.21,213.50 557.44,209.01 557.46,209.01 C570.18,212.80 581.21,212.94 593.00,209.49 C594.05,209.18 596.16,212.04 600.00,218.99 C603.03,224.46 605.95,228.95 606.50,228.97 C607.05,228.98 614.70,224.98 623.50,220.08 C635.74,213.26 639.49,210.72 639.44,209.24 C639.40,208.18 636.10,201.41 632.10,194.19 L 624.83 181.06 L 627.04 175.28 C630.11,167.25 630.80,152.76 628.54,144.09 C625.88,133.92 620.85,125.03 613.82,118.05 C595.43,99.81 567.67,97.09 546.11,111.43 C539.45,115.85 531.71,123.74 529.10,128.75 L 527.93 131.00 L 412.13 131.00 L 296.32 131.00 L 295.29 128.75 C293.58,124.99 287.11,117.81 281.53,113.48 C260.01,96.77 229.40,98.93 209.48,118.56 C194.17,133.65 188.87,158.36 197.02,176.77 L 198.95 181.13 L 191.47 196.05 C187.36,204.26 184.00,211.19 184.00,211.46 C184.00,212.06 217.68,229.00 218.88,229.00 C219.36,229.00 221.88,224.61 224.48,219.25 C227.08,213.89 229.32,209.38 229.46,209.23 C229.59,209.09 232.56,209.70 236.05,210.59 C240.48,211.73 245.39,212.11 252.32,211.86 L 262.24 211.50 L 277.43 239.00 C342.20,356.23 364.00,395.87 364.00,396.40 C364.00,396.73 357.92,397.00 350.50,397.00 L 337.00 397.00 L 337.00 417.00 L 337.00 437.00 L 351.99 437.00 L 366.97 437.00 L 370.06 443.12 C376.39,455.66 392.21,467.65 406.88,471.02 C413.67,472.59 427.77,471.81 434.50,469.50 C445.71,465.67 458.05,455.89 463.56,446.49 L 466.19 442.00 L 577.60 442.00 C638.87,442.00 689.00,442.16 689.00,442.35 C689.00,442.54 685.79,448.50 681.86,455.60 C677.93,462.69 672.36,472.77 669.49,478.00 C666.62,483.23 654.47,505.27 642.48,527.00 C630.50,548.72 616.97,573.25 612.42,581.50 C592.93,616.85 589.46,622.95 588.74,623.05 C588.32,623.11 585.13,622.85 581.64,622.48 C575.93,621.87 563.66,623.04 559.64,624.59 C558.45,625.04 556.83,622.67 552.81,614.59 C549.91,608.77 547.19,604.00 546.76,604.00 C545.05,604.00 512.00,621.07 512.00,621.96 C512.00,622.48 515.15,629.22 519.00,636.93 C522.85,644.64 526.00,651.19 526.00,651.48 C526.00,651.76 474.70,652.00 412.00,652.00 C331.67,652.00 298.00,651.68 298.00,650.93 C298.00,650.34 301.33,643.83 305.39,636.46 C310.63,626.97 312.45,622.81 311.64,622.18 C309.36,620.39 279.42,604.00 278.47,604.02 C277.49,604.03 270.69,615.73 268.13,621.81 C267.17,624.10 266.27,624.93 265.21,624.53 C264.37,624.20 260.32,623.44 256.22,622.83 C249.11,621.77 236.72,622.64 231.77,624.53 C230.41,625.06 229.05,623.12 224.81,614.59 C221.91,608.77 219.20,604.00 218.77,604.00 C217.64,604.00 184.00,620.97 184.00,621.54 C184.00,621.81 187.41,628.83 191.57,637.14 L 199.14 652.25 L 197.07 657.05 C189.02,675.78 194.07,699.96 209.22,715.11 C216.25,722.14 226.20,728.02 235.12,730.42 C242.26,732.34 254.19,732.36 261.45,730.47 ZM 339.75 574.25 C349.70,556.17 351.27,552.86 350.33,552.00 C349.09,550.86 318.05,534.00 317.19,534.00 C316.79,534.00 313.78,538.84 310.51,544.75 C307.24,550.66 303.09,557.97 301.29,561.00 C299.48,564.03 298.00,566.97 298.00,567.56 C298.00,568.58 305.49,573.05 321.00,581.27 C325.12,583.46 328.93,585.65 329.45,586.13 C331.60,588.10 333.06,586.42 339.75,574.25 ZM 184.01 576.49 C193.35,571.82 201.00,567.76 201.00,567.48 C201.00,567.21 197.17,559.33 192.49,549.99 C186.96,538.93 183.45,533.00 182.43,533.00 C181.17,533.00 149.66,548.30 148.03,549.70 C147.30,550.33 165.01,585.00 166.07,585.00 C166.59,585.00 174.67,581.17 184.01,576.49 ZM 511.59 576.36 C521.16,571.61 529.00,567.55 529.00,567.35 C529.00,566.94 511.95,532.69 511.49,532.19 C511.26,531.93 477.10,548.68 476.20,549.50 C475.84,549.82 493.31,585.00 493.82,585.00 C494.01,585.00 502.01,581.11 511.59,576.36 ZM 377.68 505.75 C381.03,499.56 385.23,491.89 387.00,488.69 C388.77,485.50 390.05,482.75 389.86,482.60 C386.98,480.30 356.46,463.99 355.63,464.31 C353.53,465.12 336.09,497.94 337.33,498.75 C341.37,501.40 369.69,516.93 370.54,516.96 C371.11,516.98 374.33,511.94 377.68,505.75 ZM 147.26 505.39 C156.74,500.65 164.67,496.62 164.87,496.43 C165.29,496.05 147.93,461.00 147.33,461.00 C146.46,461.00 112.00,478.09 112.00,478.52 C112.00,479.18 129.42,514.00 129.75,514.00 C129.90,514.00 137.78,510.12 147.26,505.39 ZM 476.57 504.48 L 493.91 495.96 L 485.20 478.48 C480.42,468.87 476.03,461.01 475.45,461.00 C474.87,461.00 466.68,464.80 457.23,469.44 L 440.07 477.88 L 448.19 494.19 C456.15,510.16 457.74,513.00 458.74,513.00 C459.01,513.00 467.03,509.17 476.57,504.48 ZM 100.20 470.88 C125.51,465.52 144.05,442.59 143.99,416.70 C143.89,376.50 100.87,349.97 65.01,368.00 C31.20,385.00 23.93,429.01 50.59,455.40 C64.29,468.97 82.45,474.63 100.20,470.88 ZM 217.00 417.00 L 217.00 397.00 L 197.00 397.00 L 177.00 397.00 L 177.00 417.00 L 177.00 437.00 L 197.00 437.00 L 217.00 437.00 L 217.00 417.00 ZM 297.00 417.00 L 297.00 397.00 L 277.00 397.00 L 257.00 397.00 L 257.00 417.00 L 257.00 437.00 L 277.00 437.00 L 297.00 437.00 L 297.00 417.00 ZM 484.49 356.01 C489.17,346.67 493.00,338.57 493.00,338.02 C493.00,337.09 460.02,320.00 458.22,320.00 C457.35,320.00 440.97,352.82 440.99,354.51 C441.00,355.23 473.33,372.38 475.74,372.94 C475.88,372.97 479.82,365.36 484.49,356.01 ZM 156.50 354.32 C162.64,342.28 165.09,336.53 164.22,336.24 C163.52,336.01 156.00,332.26 147.50,327.91 C139.01,323.56 131.38,320.00 130.54,320.00 C128.87,320.00 111.42,353.74 112.51,354.86 C113.46,355.84 145.36,371.84 146.50,371.91 C147.05,371.94 151.55,364.03 156.50,354.32 ZM 701.02 360.08 C709.91,355.17 717.40,350.93 717.67,350.66 C717.94,350.39 714.09,342.86 709.11,333.93 C704.13,324.99 699.90,317.21 699.71,316.63 C699.42,315.75 678.87,326.24 667.36,333.14 L 664.22 335.03 L 671.71 348.76 C681.02,365.84 682.94,369.00 684.02,369.00 C684.49,369.00 692.14,364.99 701.02,360.08 ZM 200.95 265.80 C201.01,264.93 166.21,247.45 165.64,248.06 C164.76,249.00 147.90,283.23 148.19,283.48 C148.36,283.62 156.36,287.66 165.96,292.45 L 183.41 301.15 L 192.15 283.83 C196.96,274.30 200.92,266.18 200.95,265.80 ZM 520.38 283.38 C525.17,273.68 528.95,265.63 528.79,265.49 C527.89,264.67 493.74,247.93 493.51,248.19 C492.68,249.10 475.93,283.26 476.19,283.49 C476.78,284.03 510.50,300.89 511.09,300.95 C511.41,300.98 515.59,293.07 520.38,283.38 ZM 662.06 290.25 C670.95,285.44 678.44,280.97 678.70,280.31 C678.95,279.66 677.41,276.06 675.26,272.31 C673.11,268.57 668.94,261.10 666.00,255.71 C661.95,248.32 660.26,246.07 659.07,246.52 C655.38,247.92 626.01,264.57 626.01,265.26 C625.99,266.62 644.35,299.00 645.13,299.00 C645.55,299.00 653.17,295.06 662.06,290.25 ZM 237.50 700.19 C230.72,696.88 228.19,694.45 224.89,688.05 C220.30,679.16 222.80,665.05 230.15,658.36 C237.61,651.58 251.18,649.45 259.50,653.75 C272.01,660.23 277.40,675.20 271.64,687.50 C267.21,696.97 259.71,702.14 249.50,702.75 C244.46,703.05 242.54,702.64 237.50,700.19 ZM 567.75 701.57 C556.43,697.53 548.68,684.88 550.57,673.54 C552.77,660.31 562.89,651.57 575.95,651.61 C586.47,651.64 594.00,656.58 598.64,666.50 C606.20,682.67 593.84,703.01 576.50,702.93 C573.75,702.92 569.81,702.31 567.75,701.57 ZM 409.63 441.53 C403.85,439.47 398.86,435.00 395.55,428.92 C388.70,416.34 393.71,400.57 406.65,393.99 C412.62,390.96 422.48,390.67 428.11,393.36 C443.91,400.94 447.90,422.38 435.84,434.93 C428.72,442.34 418.86,444.82 409.63,441.53 ZM 734.31 440.07 C715.71,431.27 714.27,405.83 731.78,395.37 C742.81,388.78 755.16,390.25 763.69,399.16 C776.24,412.28 771.87,433.30 755.00,440.92 C748.44,443.89 741.81,443.62 734.31,440.07 ZM 237.50 180.19 C230.72,176.88 228.19,174.45 224.89,168.05 C220.30,159.16 222.80,145.05 230.15,138.36 C237.71,131.49 251.19,129.36 259.50,133.72 C272.04,140.31 277.39,155.20 271.64,167.50 C267.21,176.97 259.71,182.14 249.50,182.75 C244.46,183.05 242.54,182.64 237.50,180.19 ZM 567.75 181.63 C556.33,177.37 548.68,164.87 550.57,153.54 C552.77,140.31 562.89,131.57 575.95,131.61 C586.47,131.64 594.00,136.58 598.64,146.50 C604.31,158.61 598.74,174.34 586.55,180.72 C582.44,182.87 572.36,183.36 567.75,181.63 ZM 80.74 441.57 C75.05,439.54 68.00,433.24 65.64,428.07 C62.48,421.19 62.82,411.02 66.42,404.78 C76.99,386.43 102.71,386.72 111.98,405.29 C117.20,415.72 115.91,425.66 108.23,434.18 C101.21,441.96 90.16,444.93 80.74,441.57 Z" fill="none"/>
</g>
</svg>